<svg width="95" height="100" viewBox="0 0 95 100" fill="none" xmlns="http://www.w3.org/2000/svg">
<path d="M1.77921 63.2461C0.600242 58.9525 0 54.493 0 50.0013C0 29.4969 12.8776 10.7486 32.0467 3.35529L34.56 9.85991C18.0597 16.2253 6.97739 32.3557 6.97739 50.0013C6.97739 53.8719 7.49183 57.705 8.50469 61.399L1.77921 63.2461Z" fill="#69D3A7"/>
<path d="M88.4391 30.193C80.9796 15.8721 66.2958 6.97441 50.1279 6.97441C44.3991 6.97441 38.8312 8.07724 33.5902 10.2454L30.916 3.80505C37.0091 1.28352 43.4721 -0.00134277 50.1279 -0.00134277C68.911 -0.00134277 85.9633 10.3311 94.6287 26.9701L88.4391 30.193Z" fill="url(#paint0_linear_790_528)"/>
<path d="M35.1605 39.6849C39.2063 39.6849 42.5022 41.8424 44.1957 45.606L44.3297 45.9006L51.1247 43.5931L50.9801 43.2452C48.3488 36.8368 42.2878 32.8537 35.1605 32.8537C30.1497 32.8537 26.0769 34.4599 22.7115 37.7577C19.3674 41.0341 17.6741 45.1564 17.6741 50.012C17.6741 54.8249 19.3674 58.9258 22.7115 62.2022C26.0769 65.5001 30.1497 67.1062 35.1605 67.1062C42.2878 67.1062 48.3488 63.1231 50.9801 56.7201L51.1247 56.3722L44.3188 54.0593L44.1903 54.3645C42.6736 58.0639 39.2976 60.2749 35.1605 60.2749C32.3415 60.2749 29.9622 59.2899 28.0757 57.3518C26.168 55.387 25.2034 52.9191 25.2034 50.0174C25.2034 47.0943 26.1465 44.6745 28.0757 42.6187C29.9567 40.6702 32.3415 39.6849 35.1605 39.6849Z" fill="#1B1E2E"/>
<path d="M77.721 33.4855L68.0375 57.9888L58.2896 33.4855H50.3154L63.9861 66.9294L54.2596 90.5173L61.2317 91.904L85.2558 33.4855H77.721Z" fill="#1B1E2E"/>
<path d="M55.5071 87.4766L53.8083 91.5882C53.4706 92.402 52.6989 92.9532 51.8308 92.9907C51.2575 93.0122 50.6787 93.0282 50.0946 93.0282C30.1002 93.0176 12.4103 78.9216 8.02662 59.4987L1.2207 61.0351C3.68048 71.9297 9.85404 81.8178 18.6052 88.8847C27.4583 96.0316 38.6102 99.9772 50.0196 99.9986C50.0356 99.9986 50.1212 99.9986 50.1212 99.9986C50.7912 99.9986 51.4556 99.9826 52.1202 99.9559C55.7 99.8059 58.8994 97.5628 60.2658 94.2382L62.4844 88.8632L55.5071 87.4766Z" fill="url(#paint1_linear_790_528)"/>
<defs>
<linearGradient id="paint0_linear_790_528" x1="44.9118" y1="-3.2293" x2="82.9637" y2="37.4409" gradientUnits="userSpaceOnUse">
<stop offset="0.0939" stop-color="#58D09E"/>
<stop offset="0.9883" stop-color="#58D09E" stop-opacity="0"/>
</linearGradient>
<linearGradient id="paint1_linear_790_528" x1="-0.534201" y1="72.7518" x2="72.1625" y2="92.1012" gradientUnits="userSpaceOnUse">
<stop offset="0.0774" stop-color="#58D09E"/>
<stop offset="0.7617" stop-color="#1B1E2E"/>
</linearGradient>
</defs>
</svg>
