<svg width="100" height="60" viewBox="0 0 100 60" fill="none" xmlns="http://www.w3.org/2000/svg">
<path d="M50.0002 0C36.6665 0 28.3334 6.66499 24.9996 19.9937C30.0002 13.3287 35.8337 10.8303 42.4999 12.4959C46.3039 13.4463 49.0224 16.206 52.0323 19.2597C56.9341 24.234 62.6075 29.9912 75.0009 29.9912C88.3334 29.9912 96.6677 23.3262 100 9.99623C95.0009 16.6612 89.1674 19.1609 82.4999 17.4953C78.6973 16.5449 75.9787 13.7851 72.9689 10.7315C68.067 5.75715 62.3924 0 50.0002 0ZM24.9996 29.9912C11.6671 29.9912 3.33274 36.6562 0.000244141 49.9862C4.99962 43.3212 10.8331 40.8215 17.5006 42.4884C21.3032 43.44 24.0218 46.1985 27.0316 49.2509C31.9335 54.2252 37.6081 59.9836 50.0002 59.9836C63.334 59.9836 71.6671 53.3187 75.0009 39.9887C70.0002 46.6537 64.1668 49.1534 57.5006 47.4865C53.6966 46.5374 50.9781 43.7763 47.9682 40.724C43.0664 35.7496 37.393 29.9912 24.9996 29.9912Z" fill="#06B6D4"/>
</svg>
